<?xml version="1.0" encoding="utf-8"?>
<svg width="110" height="76" viewBox="0 0 110 76" xmlns="http://www.w3.org/2000/svg">
  <style>
    path {
    fill: #202328;
    }
    @media (prefers-color-scheme: dark) {
    path {
    fill: white;
    }
    }
  </style>
  <path d="M2.21326 73.1983H47.2549C47.8072 73.1983 48.2549 72.7506 48.2549 72.1983V63.7794C48.2549 63.2271 47.8072 62.7794 47.2549 62.7794H15.4105V42.0408H39.4159C39.9682 42.0408 40.4159 41.5931 40.4159 41.0408V33.1181C40.4159 32.5658 39.9682 32.1181 39.4159 32.1181H15.4105V12.6694H45.568C46.1203 12.6694 46.568 12.2217 46.568 11.6694V3.25053C46.568 2.69825 46.1203 2.25053 45.568 2.25053H2.21326V73.1983Z"/>
  <path d="M82.3645 74.1906C98.0425 74.1906 108.461 64.5655 108.461 52.2613C108.461 38.0717 99.8286 33.3088 83.1584 31.0266C70.8541 29.2405 68.4727 26.3628 68.4727 20.6076C68.4727 15.1501 72.6402 11.2802 80.6777 11.2802C88.5059 11.2802 92.7521 14.2194 94.2115 21.0696C94.3128 21.5453 94.7263 21.8976 95.2127 21.8976H105.369C105.962 21.8976 106.426 21.3832 106.345 20.7962C104.583 7.92836 95.5404 1.35748 80.6777 1.35748C65.8928 1.35748 55.97 10.0895 55.97 21.6991C55.97 34.9957 64.0074 40.1555 80.9754 42.4377C92.4858 44.3231 95.7603 46.8037 95.7603 53.3528C95.7603 59.9018 90.2035 64.2678 82.3645 64.2678C70.8518 64.2678 67.7325 58.7938 66.7081 52.0449C66.6324 51.5463 66.2089 51.1698 65.7046 51.1698H54.963C54.3816 51.1698 53.9215 51.6652 53.982 52.2434C55.3248 65.0768 63.5361 74.1906 82.3645 74.1906Z"/>
</svg>
