<svg width="427" height="98" viewBox="0 0 427 98" xmlns="http://www.w3.org/2000/svg">
<path d="M4.71326 77.4483H49.7549C50.3072 77.4483 50.7549 77.0006 50.7549 76.4483V68.0294C50.7549 67.4771 50.3072 67.0294 49.7549 67.0294H17.9105V46.2908H41.9159C42.4682 46.2908 42.9159 45.8431 42.9159 45.2908V37.3681C42.9159 36.8158 42.4682 36.368 41.9159 36.368H17.9105V16.9194H48.068C48.6203 16.9194 49.068 16.4717 49.068 15.9194V7.50053C49.068 6.94824 48.6203 6.50053 48.068 6.50053H4.71326V77.4483Z" fill="#202328"/>
<path d="M74.3695 78.3413C77.6308 78.3413 80.0309 77.8715 81.8479 77.2797C82.2462 77.15 82.5062 76.7731 82.5062 76.3541V69.0188C82.5062 68.307 81.7805 67.8198 81.0939 68.0073C79.8008 68.3603 78.3838 68.5178 76.6517 68.5178C72.8811 68.5178 70.6981 66.434 70.6981 61.8696V34.582H81.1093C81.6616 34.582 82.1093 34.1342 82.1093 33.582V26.5522C82.1093 26 81.6616 25.5522 81.1093 25.5522H70.6981V15.1411C70.6981 14.5888 70.2504 14.1411 69.6981 14.1411H59.6915C59.1393 14.1411 58.6915 14.5888 58.6915 15.1411V25.5522H52.7456C52.1933 25.5522 51.7456 26 51.7456 26.5522V33.582C51.7456 34.1342 52.1933 34.582 52.7456 34.582H58.6915V62.9611C58.6915 72.7846 64.0498 78.3413 74.3695 78.3413Z" fill="#202328"/>
<path d="M89.3668 76.4483C89.3668 77.0006 89.8146 77.4483 90.3668 77.4483H100.373C100.926 77.4483 101.373 77.0006 101.373 76.4483V46.8862C101.373 38.6503 106.831 34.4827 113.578 34.4827C120.723 34.4827 123.898 38.0549 123.898 45.8939V76.4483C123.898 77.0006 124.346 77.4483 124.898 77.4483H134.905C135.457 77.4483 135.905 77.0006 135.905 76.4483V44.8024C135.905 30.5136 128.562 24.4607 118.143 24.4607C109.609 24.4607 103.854 28.7275 101.373 33.7881V2.53915C101.373 1.98686 100.926 1.53915 100.373 1.53915H90.3668C89.8146 1.53915 89.3668 1.98686 89.3668 2.53915V76.4483Z" fill="#202328"/>
<path d="M171.865 78.4406C187.542 78.4406 197.961 68.8155 197.961 56.5113C197.961 42.3217 189.329 37.5588 172.658 35.2766C160.354 33.4905 157.973 30.6128 157.973 24.8576C157.973 19.4001 162.14 15.5302 170.178 15.5302C178.006 15.5302 182.252 18.4694 183.711 25.3196C183.813 25.7953 184.226 26.1476 184.713 26.1476H194.869C195.462 26.1476 195.926 25.6332 195.845 25.0462C194.083 12.1784 185.04 5.60748 170.178 5.60748C155.393 5.60748 145.47 14.3395 145.47 25.9491C145.47 39.2457 153.507 44.4055 170.475 46.6877C181.986 48.573 185.26 51.0537 185.26 57.6028C185.26 64.1518 179.704 68.5178 171.865 68.5178C160.352 68.5178 157.233 63.0438 156.208 56.2949C156.132 55.7963 155.709 55.4198 155.205 55.4198H144.463C143.882 55.4198 143.421 55.9152 143.482 56.4934C144.825 69.3268 153.036 78.4406 171.865 78.4406Z" fill="#202328"/>
<path d="M204.09 76.4483C204.09 77.0006 204.538 77.4483 205.09 77.4483H215.097C215.649 77.4483 216.097 77.0006 216.097 76.4483V26.5522C216.097 26 215.649 25.5522 215.097 25.5522H205.09C204.538 25.5522 204.09 26 204.09 26.5522V76.4483ZM209.945 17.0187C213.914 17.0187 217.089 14.0418 217.089 10.172C217.089 6.20284 213.914 3.22602 209.945 3.22602C205.976 3.22602 202.8 6.20284 202.8 10.172C202.8 14.0418 205.976 17.0187 209.945 17.0187Z" fill="#202328"/>
<path d="M247.898 96.5C263.973 96.5 274.193 88.8595 274.292 73.5784V26.5522C274.292 26 273.845 25.5522 273.292 25.5522H263.286C262.733 25.5522 262.286 26 262.286 26.5522V33.4904C259.309 28.3306 254.149 24.4607 245.615 24.4607C232.22 24.4607 222.297 35.3758 222.297 49.9622V50.6568C222.297 65.6402 232.319 75.3645 245.318 75.3645C252.958 75.3645 259.408 70.7008 262.286 65.7394V73.38C262.286 82.7074 257.126 87.3711 247.798 87.3711C240.377 87.3711 236.424 84.703 235.182 80.0404C235.059 79.5771 234.652 79.2344 234.172 79.2344H224.042C223.435 79.2344 222.966 79.7729 223.08 80.3696C224.861 89.7121 232.251 96.5 247.898 96.5ZM248.295 66.1363C240.555 66.1363 234.601 60.1827 234.601 50.5576V49.7638C234.601 40.3372 239.761 33.8874 248.692 33.8874C257.324 33.8874 262.683 39.7418 262.683 49.5653V50.2599C262.683 60.1827 256.63 66.1363 248.295 66.1363Z" fill="#202328"/>
<path d="M282.609 76.4483C282.609 77.0006 283.057 77.4483 283.609 77.4483H293.615C294.168 77.4483 294.615 77.0006 294.615 76.4483V46.8862C294.615 38.6503 300.073 34.4827 306.82 34.4827C313.965 34.4827 317.14 38.0549 317.14 45.8939V76.4483C317.14 77.0006 317.588 77.4483 318.14 77.4483H328.147C328.699 77.4483 329.147 77.0006 329.147 76.4483V44.8024C329.147 30.5136 321.804 24.4607 311.385 24.4607C302.851 24.4607 297.096 28.7275 294.615 33.7881V26.5522C294.615 26 294.168 25.5522 293.615 25.5522H283.609C283.057 25.5522 282.609 26 282.609 26.5522V76.4483Z" fill="#202328"/>
<path d="M360.84 78.4406C373.662 78.4406 382.332 72.904 384.447 62.7208C384.571 62.1205 384.101 61.5719 383.488 61.5719H373.884C373.398 61.5719 372.988 61.9225 372.87 62.393C371.723 66.9426 367.98 69.5101 361.137 69.5101C352.207 69.5101 347.246 63.9533 346.849 54.1298H383.853C384.405 54.1298 384.853 53.6821 384.853 53.1298V50.6568C384.853 32.1013 373.243 24.4607 360.344 24.4607C345.559 24.4607 334.544 35.1773 334.544 51.2522V52.046C334.544 68.4186 345.559 78.4406 360.84 78.4406ZM347.047 46.0924C348.238 38.0549 353.1 33.1928 360.344 33.1928C367.786 33.1928 372.35 37.1619 372.945 46.0924H347.047Z" fill="#202328"/>
<path d="M391.608 76.4483C391.608 77.0006 392.056 77.4483 392.608 77.4483H402.615C403.167 77.4483 403.615 77.0006 403.615 76.4483V50.4584C403.615 39.7943 409.568 36.2926 419.493 35.9907C420.041 35.974 420.483 35.5291 420.483 34.9805V25.7698C420.483 25.2131 420.026 24.7616 419.47 24.7876C411.371 25.1664 406.76 28.9852 403.615 35.2766V26.5522C403.615 26 403.167 25.5522 402.615 25.5522H392.608C392.056 25.5522 391.608 26 391.608 26.5522V76.4483Z" fill="#202328"/>
</svg>
